<svg xmlns="http://www.w3.org/2000/svg" viewBox="0 0 611.3 305.58"><defs><style>.cls-1{fill:#fff;}</style></defs><g id="Lager_2" data-name="Lager 2"><g id="Layer_1" data-name="Layer 1"><circle class="cls-1" cx="305.6" cy="61.98" r="20.9"/><path class="cls-1" d="M466.6,15.78a145.34,145.34,0,0,0-52.5,9.8H355.8a61.94,61.94,0,0,0-82.7-16.3,62.38,62.38,0,0,0-17.6,16.3H197.2a144.83,144.83,0,1,0,92.3,135,143.33,143.33,0,0,0-5.8-40.6,68.64,68.64,0,0,0,7.7,2.4,63.3,63.3,0,0,0,14.2,1.7,61.11,61.11,0,0,0,21.8-4,143.33,143.33,0,0,0-5.8,40.6c-.1,80,64.8,144.8,144.8,144.9s144.8-64.8,144.9-144.8A144.72,144.72,0,0,0,466.6,15.78ZM144.7,254.08a93.5,93.5,0,0,1,0-187v.1H149a93.5,93.5,0,0,1-4.3,186.9ZM305.7,98a34.23,34.23,0,0,1-8.3-1,36.14,36.14,0,0,1-26.8-43.3h0a36,36,0,0,1,35-27.8,33.09,33.09,0,0,1,8.3,1A36,36,0,0,1,305.7,98Zm160.9,156.1a93.5,93.5,0,0,1-4.3-186.9h4.3v-.1a93.5,93.5,0,0,1,0,187Z"/><path class="cls-1" d="M144.6,90.68a70,70,0,0,0-69.9,69.9,15,15,0,0,0,30,0,40,40,0,0,1,39.9-39.9,15,15,0,0,0,0-30Z"/><path class="cls-1" d="M466.6,90.68a70,70,0,0,0-69.9,69.9,15,15,0,0,0,30,0,40,40,0,0,1,39.9-39.9,15,15,0,0,0,0-30Z"/></g></g></svg>