<?xml version="1.0" encoding="utf-8"?>
<!-- Generator: Adobe Illustrator 24.3.0, SVG Export Plug-In . SVG Version: 6.00 Build 0)  -->
<svg version="1.1" id="Layer_1" xmlns="http://www.w3.org/2000/svg" xmlns:xlink="http://www.w3.org/1999/xlink" x="0px" y="0px"
	 viewBox="0 0 2121.8 677.8" style="enable-background:new 0 0 2121.8 677.8;" xml:space="preserve">
<style type="text/css">
	.st0{fill:#FFFFFF;}
	.st1{fill:none;stroke:#FFFFFF;stroke-width:26;stroke-miterlimit:10;}
	.st2{fill:none;stroke:#FFFFFF;stroke-width:30;stroke-linecap:round;stroke-miterlimit:10;}
</style>
<path class="st0" d="M31.8,22.8h55.6c30.5,0,52.2,2.7,65.1,8.2s23.3,14.5,31.2,27.1c7.9,12.6,11.8,27.6,11.8,44.8
	c0,18.1-4.3,33.3-13,45.5c-8.7,12.2-21.8,21.4-39.3,27.7l65.3,122.6h-57.4l-62-116.8h-4.8v116.8H31.8V22.8z M84.3,130.6h16.5
	c16.7,0,28.2-2.2,34.5-6.6c6.3-4.4,9.4-11.7,9.4-21.8c0.1-5.6-1.5-11.1-4.7-15.7c-3.1-4.4-7.4-7.8-12.5-9.6
	c-5.2-1.9-14.8-2.9-28.8-2.9H84.3V130.6z"/>
<path class="st0" d="M922.7,22.8h51.1l63.9,192.4l64.5-192.4h51.1l46.3,275.8h-50.8l-29.6-174.2l-58.6,174.2h-46.3l-58.1-174.2
	l-30.3,174.2h-51.2L922.7,22.8z"/>
<path class="st0" d="M0,468.6h50.1l41,116l44.1-116h30.7l43.3,114.7l41.1-114.7h50.4l-74.4,204h-32.4l-43.5-116.3l-44.8,116.2H73.5
	L0,468.6z"/>
<path class="st0" d="M349.7,384.6c8.7-0.1,17.1,3.4,23.1,9.7c6.3,6.2,9.8,14.8,9.6,23.6c0.1,8.8-3.3,17.2-9.5,23.3
	c-5.9,6.3-14.2,9.8-22.8,9.7c-8.8,0.1-17.2-3.4-23.3-9.9c-6.3-6.3-9.8-15-9.6-23.9C317.1,399.2,331.7,384.6,349.7,384.6z
	 M324.1,468.6h51.2v204h-51.2V468.6z"/>
<path class="st0" d="M427.9,393.4h51.2v75.2h30.4v44.1h-30.4v159.9h-51.2V512.6h-26.2v-44.1h26.2V393.4z"/>
<path class="st0" d="M537,389.8h50.8v99.4c10-8.6,20.1-15.1,30.2-19.4c9.7-4.2,20.2-6.4,30.8-6.5c20.2,0,37.3,7,51.2,21
	c11.9,12.1,17.8,29.9,17.8,53.4v134.8h-50.4v-89.4c0-23.6-1.1-39.6-3.4-48s-6.1-14.6-11.5-18.8c-5.4-4.1-12.2-6.2-20.2-6.2
	c-9.9-0.2-19.5,3.5-26.7,10.3c-7.4,6.9-12.6,16.3-15.5,28.1c-1.5,6.1-2.2,20.1-2.2,42v81.9H537V389.8z"/>
<path class="st0" d="M1025.3,468.6h51.2v204h-51.2V651c-10,9.5-20,16.3-30.1,20.5c-10.4,4.3-21.5,6.4-32.7,6.3
	c-26.3,0-49.1-10.2-68.3-30.7c-19.2-20.4-28.8-45.8-28.8-76.2c0-31.5,9.3-57.3,27.9-77.4c18.6-20.1,41.2-30.2,67.8-30.2
	c11.8-0.1,23.6,2.3,34.5,6.9c11.2,4.9,21.3,12,29.8,20.8L1025.3,468.6z M971.5,510.6c-15.8,0-29,5.6-39.4,16.8
	c-10.5,11.2-15.7,25.5-15.7,43c0,17.6,5.3,32.1,16,43.5c10,11.1,24.4,17.3,39.3,17.1c16.1,0,29.4-5.6,40-16.8
	c10.6-11.2,15.9-25.9,15.9-44c0-17.7-5.3-32.1-15.9-43.1C1001.1,516,987.7,510.5,971.5,510.6z"/>
<path class="st0" d="M1220.3,396.8h54l69.4,195.9l70.4-195.9h53.9l-99.4,275.8H1318L1220.3,396.8z"/>
<path class="st0" d="M1506.4,396.8h52.1v275.8h-52.1V396.8z"/>
<path class="st0" d="M1617.7,396.8h150.6v51.4h-98.4V498h98.4v50.4h-98.4V621h98.4v51.5h-150.6V396.8z"/>
<path class="st0" d="M1796.3,396.8h51.7l39.8,176l49.2-176h43.7l50,176l39.5-176h51.6l-62.1,275.8h-50.3l-50.8-178.3l-49.9,178.3
	h-49.9L1796.3,396.8z"/>
<ellipse transform="matrix(0.2298 -0.9732 0.9732 0.2298 357.2639 575.3422)" class="st1" cx="542.1" cy="62" rx="49" ry="49"/>
<g>
	<path class="st0" d="M493.2,62c0-14.4,6.3-27.4,16.2-36.4H381.2v41.6h112.3C493.3,65.5,493.2,63.7,493.2,62z"/>
	<path class="st0" d="M574.9,25.6c9.9,9,16.2,21.9,16.2,36.4c0,1.8-0.1,3.5-0.3,5.2h112.3V25.6H574.9z"/>
</g>
<circle class="st0" cx="542.1" cy="62" r="20.9"/>
<path class="st0" d="M381.2,15.8c-80,0-144.8,64.8-144.8,144.8s64.8,144.8,144.8,144.8S526,240.6,526,160.6l0,0
	C526,80.7,461.2,15.8,381.2,15.8z M381.2,254.1c-51.6,0-93.5-41.8-93.5-93.5s41.8-93.5,93.5-93.5s93.5,41.8,93.5,93.5c0,0,0,0,0,0
	C474.6,212.3,432.8,254.1,381.2,254.1z"/>
<path class="st0" d="M703.1,15.8c-80,0-144.8,64.8-144.9,144.8s64.8,144.8,144.8,144.9s144.8-64.8,144.9-144.8c0,0,0,0,0,0
	C847.9,80.7,783.1,15.8,703.1,15.8z M703.1,254.1c-51.6,0-93.5-41.8-93.5-93.5s41.8-93.5,93.5-93.5c51.6,0,93.5,41.8,93.5,93.5
	c0,0,0,0,0,0C796.5,212.3,754.7,254.1,703.1,254.1L703.1,254.1z"/>
<path class="st2" d="M326.2,160.6c0-30.3,24.6-54.9,54.9-54.9"/>
<path class="st2" d="M648.2,160.6c0-30.3,24.6-54.9,54.9-54.9c0,0,0,0,0,0"/>
</svg>
