<?xml version="1.0" encoding="utf-8"?>
<!-- Generator: Adobe Illustrator 24.3.0, SVG Export Plug-In . SVG Version: 6.00 Build 0)  -->
<svg version="1.1" id="Layer_1" xmlns="http://www.w3.org/2000/svg" xmlns:xlink="http://www.w3.org/1999/xlink" x="0px" y="0px"
	 viewBox="0 0 611.3 305.6" style="enable-background:new 0 0 611.3 305.6;" xml:space="preserve">
<g id="Lager_2">
	<g id="Layer_1_1_">
		<circle cx="305.6" cy="62" r="20.9"/>
		<path d="M466.6,15.8c-18,0-35.8,3.3-52.5,9.8h-58.3c-19-26.2-55.1-33.4-82.7-16.3c-6.9,4.2-12.8,9.8-17.6,16.3h-58.3
			C122.7-3.4,38.7,33.5,9.7,108s7.9,158.5,82.4,187.5c74.5,29,158.5-7.9,187.5-82.4c6.5-16.7,9.9-34.5,9.9-52.5
			c0-13.7-1.9-27.4-5.8-40.6c2.5,1,5.1,1.8,7.7,2.4c4.7,1.1,9.4,1.7,14.2,1.7c7.4,0,14.8-1.3,21.8-4c-3.9,13.2-5.8,26.9-5.8,40.6
			c-0.1,80,64.8,144.8,144.8,144.9s144.8-64.8,144.9-144.8c0.2-79.9-64.5-144.8-144.4-145C466.8,15.8,466.7,15.8,466.6,15.8z
			 M144.7,254.1c-51.6,0-93.5-41.9-93.5-93.5s41.9-93.5,93.5-93.5v0.1h4.3c51.6,2.4,91.5,46.1,89.1,97.7
			C235.8,214.8,194.6,254.1,144.7,254.1L144.7,254.1z M305.7,98c-2.8,0-5.6-0.3-8.3-1c-19.3-4.6-31.3-24-26.8-43.3l0,0
			c3.8-16.3,18.3-27.8,35-27.8c2.8,0,5.6,0.3,8.3,1c19.4,4.4,31.5,23.7,27.1,43.1C337.3,86.5,322.6,98.1,305.7,98z M466.6,254.1
			c-51.6,0-93.5-41.9-93.5-93.5c0-49.9,39.3-91.1,89.2-93.4h4.3v-0.1c51.6,0,93.5,41.9,93.5,93.5
			C560.1,212.2,518.2,254.1,466.6,254.1z"/>
		<path d="M144.6,90.7C106,90.7,74.8,122,74.7,160.6c0,8.3,6.7,15,15,15s15-6.7,15-15c0.1-22,17.9-39.8,39.9-39.9
			c8.3,0,15-6.7,15-15S152.9,90.7,144.6,90.7z"/>
		<path d="M466.6,90.7c-38.6,0.1-69.8,31.3-69.9,69.9c0,8.3,6.7,15,15,15s15-6.7,15-15c0.1-22,17.9-39.8,39.9-39.9
			c8.3,0,15-6.7,15-15S474.9,90.7,466.6,90.7z"/>
	</g>
</g>
</svg>
