<?xml version="1.0" encoding="utf-8"?>
<!-- Generator: Adobe Illustrator 24.3.0, SVG Export Plug-In . SVG Version: 6.00 Build 0)  -->
<svg version="1.1" id="Layer_1" xmlns="http://www.w3.org/2000/svg" xmlns:xlink="http://www.w3.org/1999/xlink" x="0px" y="0px"
	 viewBox="0 0 2121.8 677.8" style="enable-background:new 0 0 2121.8 677.8;" xml:space="preserve">
<g>
	<path d="M84.3,181.9h4.8l62,116.8h57.4l-65.3-122.6c17.5-6.3,30.6-15.5,39.3-27.7c8.7-12.2,13-27.4,13-45.5
		c0-17.2-3.9-32.2-11.8-44.8c-7.9-12.6-18.3-21.6-31.2-27.1s-34.6-8.2-65.1-8.2H31.8v275.9h52.5V181.9z M84.3,74h14.4
		c14,0,23.6,1,28.8,2.9c5.1,1.8,9.4,5.2,12.5,9.6c3.2,4.6,4.8,10.1,4.7,15.7c0,10.1-3.1,17.4-9.4,21.8c-6.3,4.4-17.8,6.6-34.5,6.6
		H84.3V74z"/>
	<polygon points="1102.2,22.8 1037.7,215.2 973.8,22.8 922.7,22.8 874.7,298.6 925.9,298.6 956.2,124.4 1014.3,298.6 1060.6,298.6 
		1119.2,124.4 1148.8,298.6 1199.6,298.6 1153.3,22.8 	"/>
	<polygon points="209.2,583.3 165.9,468.6 135.2,468.6 91.1,584.6 50.1,468.6 0,468.6 73.5,672.5 105.6,672.5 150.4,556.3 
		193.9,672.6 226.3,672.6 300.7,468.6 250.3,468.6 	"/>
	<rect x="324.1" y="468.6" width="51.2" height="204"/>
	<path d="M349.7,384.6c-18,0-32.6,14.6-32.5,32.5c-0.2,8.9,3.3,17.6,9.6,23.9c6.1,6.5,14.5,10,23.3,9.9c8.6,0.1,16.9-3.4,22.8-9.7
		c6.2-6.1,9.6-14.5,9.5-23.3c0.2-8.8-3.3-17.4-9.6-23.6C366.8,388,358.4,384.5,349.7,384.6z"/>
	<polygon points="479.1,393.4 427.9,393.4 427.9,468.5 401.7,468.5 401.7,512.6 427.9,512.6 427.9,672.6 479.1,672.6 479.1,512.7 
		509.5,512.7 509.5,468.6 479.1,468.6 	"/>
	<path d="M648.8,463.3c-10.6,0.1-21.1,2.3-30.8,6.5c-10.1,4.3-20.2,10.8-30.2,19.4v-99.4H537v282.6h50.9v-81.9
		c0-21.9,0.7-35.9,2.2-42c2.9-11.8,8.1-21.2,15.5-28.1c7.2-6.8,16.8-10.5,26.7-10.3c8,0,14.8,2.1,20.2,6.2
		c5.4,4.2,9.2,10.4,11.5,18.8s3.4,24.4,3.4,48v89.4h50.4V537.7c0-23.5-5.9-41.3-17.8-53.4C686.1,470.3,669,463.3,648.8,463.3z"/>
	<path d="M1025.4,491c-8.5-8.8-18.6-15.9-29.8-20.8c-10.9-4.6-22.7-7-34.5-6.9c-26.6,0-49.2,10.1-67.8,30.2
		c-18.6,20.1-27.9,45.9-27.9,77.4c0,30.4,9.6,55.8,28.8,76.2c19.2,20.5,42,30.7,68.3,30.7c11.2,0.1,22.3-2,32.7-6.3
		c10.1-4.2,20.1-11,30.1-20.5v21.6h51.2v-204h-51.2L1025.4,491z M1011.7,614.2c-10.6,11.2-23.9,16.8-40,16.8
		c-14.9,0.2-29.3-6-39.3-17.1c-10.7-11.4-16-25.9-16-43.5c0-17.5,5.2-31.8,15.7-43c10.4-11.2,23.6-16.8,39.4-16.8
		c16.2-0.1,29.6,5.4,40.2,16.5c10.6,11,15.9,25.4,15.9,43.1C1027.6,588.3,1022.3,603,1011.7,614.2z"/>
	<polygon points="1343.7,592.7 1274.3,396.8 1220.3,396.8 1318,672.6 1368.6,672.6 1468,396.8 1414.1,396.8 	"/>
	<rect x="1506.4" y="396.8" width="52.1" height="275.8"/>
	<polygon points="1617.7,672.5 1768.3,672.5 1768.3,621 1669.9,621 1669.9,548.4 1768.3,548.4 1768.3,498 1669.9,498 1669.9,448.2 
		1768.3,448.2 1768.3,396.8 1617.7,396.8 	"/>
	<polygon points="2070.2,396.8 2030.7,572.8 1980.7,396.8 1937,396.8 1887.8,572.8 1848,396.8 1796.3,396.8 1858.8,672.6 
		1908.7,672.6 1958.6,494.3 2009.4,672.6 2059.7,672.6 2121.8,396.8 	"/>
	<circle cx="542.1" cy="62" r="20.9"/>
	<path d="M703.1,15.8c-18.5,0-36.2,3.5-52.5,9.8h-58.3c-8.7-12-21.3-20.5-35.9-23.9c-16.1-3.8-32.8-1.1-46.8,7.6
		c-7,4.3-12.9,9.9-17.6,16.3h-58.3c-16.3-6.3-33.9-9.8-52.4-9.8c-80,0-144.8,64.8-144.8,144.8s64.8,144.8,144.8,144.8
		S526,240.6,526,160.6c0-14.1-2-27.7-5.8-40.6c2.5,0.9,5.1,1.7,7.7,2.4c4.8,1.1,9.5,1.7,14.2,1.7c7.6,0,15-1.4,21.8-4
		c-3.8,12.9-5.8,26.5-5.8,40.6c-0.1,80,64.8,144.8,144.8,144.9s144.8-64.8,144.9-144.8C847.9,80.7,783.1,15.8,703.1,15.8z
		 M381.2,254.1c-51.6,0-93.5-41.8-93.5-93.5c0-51.7,41.8-93.5,93.5-93.5v0.1h4.2c49.7,2.2,89.3,43.1,89.3,93.4
		C474.6,212.3,432.8,254.1,381.2,254.1z M542.2,98c-2.7,0-5.5-0.3-8.3-1c-9.4-2.2-17.3-7.9-22.4-16.1c-5.1-8.2-6.6-17.8-4.4-27.2
		l0,0c2.2-9.4,7.9-17.3,16.1-22.4c5.8-3.6,12.3-5.4,18.9-5.4c2.8,0,5.6,0.3,8.3,1c19.3,4.6,31.3,24,26.8,43.3
		C573.3,86.8,558.5,98,542.2,98z M703.1,254.1c-51.6,0-93.5-41.8-93.5-93.5c0-50.3,39.5-91.2,89.3-93.4h4.2v-0.1
		c51.6,0,93.5,41.8,93.5,93.5C796.5,212.3,754.7,254.1,703.1,254.1z"/>
	<path d="M381.1,90.7c-38.5,0-69.9,31.4-69.9,69.9c0,8.3,6.7,15,15,15s15-6.7,15-15c0-22,17.9-39.9,39.9-39.9c8.3,0,15-6.7,15-15
		S389.4,90.7,381.1,90.7z"/>
	<path d="M703.1,90.7c-38.5,0-69.9,31.4-69.9,69.9c0,8.3,6.7,15,15,15s15-6.7,15-15c0-22,17.9-39.9,39.9-39.9c8.3,0,15-6.7,15-15
		S711.4,90.7,703.1,90.7z"/>
</g>
</svg>
